<?xml version="1.0" encoding="utf-8"?>
<!-- Generator: Adobe Illustrator 18.0.0, SVG Export Plug-In . SVG Version: 6.00 Build 0)  -->
<!DOCTYPE svg PUBLIC "-//W3C//DTD SVG 1.1//EN" "http://www.w3.org/Graphics/SVG/1.1/DTD/svg11.dtd">
<svg version="1.1" id="Layer_1" xmlns="http://www.w3.org/2000/svg" xmlns:xlink="http://www.w3.org/1999/xlink" x="0px" y="0px"
	 viewBox="0 0 500 500" enable-background="new 0 0 500 500" xml:space="preserve">
<path fill="#FFFFFF" d="M464.7,49.6C433.2,15.7,335,6.6,251,6.6c-85,0-183.5,9.1-215,43C4.5,83.4-0.2,176-0.2,250
	c0,75,4.8,166.4,36.3,200.2C67.5,484.1,166,493,251,493c84,0,182.2-8.9,213.7-42.8c31.5-33.8,35-125.2,35-200.2
	C499.8,176,496.2,83.4,464.7,49.6z M246.2,16.5c16.7,30.9,31.6,121.6,30.4,234.5l0.2,0c-1.6,111.5,6.4,195.6,22,230.9
	c-9.3,0.5-18.8,0.8-28.5,1c-49.4-12.5-70.4-75.4-85.3-119.4c-16.6-49-38.5-110.2-83.6-113.5c23.6-4.1,39.8-9,51.2-18.6
	c11.4-9.6,24.5-27.1,24.5-55.1c0-32.1-17.7-57.1-43.9-70.2C109,94,83.3,91,38.5,93c2.6-11.3,5.7-20,9.2-25.3
	C71.5,31.2,150.4,17,246.2,16.5z M293.3,249.2l-0.2,0c0.2-16.1,0.3-31.7,0.1-46.6c62.8,0.8,81,16.1,92.9,30.6
	c12.2,14.9,14.1,39.4,14.1,90.1c0,50.7-1.7,75.2-14,90.1c-11.4,13.8-21.6,28.4-75.9,30.4C299.9,399.5,292.4,330,293.3,249.2z
	 M47.7,432.2C33.1,409.8,25.8,328,25.8,250c0-54.4,3.6-111.8,10.9-148.6c41.3-1,72.8,4.5,88.8,14.9c21.6,14,30.9,33.2,30.9,60.1
	c0,49.9-51.9,63.6-88.9,73.5c75.8,0,83.6,57.7,100.6,115.9c13.4,45.7,23.8,100.3,57.6,117.1C139.3,480.5,69.8,466,47.7,432.2z
	 M453.1,432.2c-18,27.6-66.9,42.3-131.1,48.1c-3.1-6.6-6.1-15.2-9-25.6c50.2-2.4,67.3-16.5,84.6-34c19-19.2,23.6-57.1,23.6-97.3
	c0-40.2-4.7-78.1-23.7-97.3c-18.5-18.7-46.8-33.5-104.4-34.3c-1.5-84.3-9.5-146.8-22.7-175c89,1.8,160.1,16.4,182.7,50.9
	C467.7,90,473.7,173,473.7,250C473.7,328,467.7,409.8,453.1,432.2z"/>
</svg>
